#!OML:ASF E:\id_vita\Project 1\Capture day 1\Session 1\Female.ASF
:FULLY-SPECIFIED
:DEGREES
1092
root 16.463 13.9489 -3.14744 -168.043 -83.133 -159.027
lowerback 16.7922 3.29312 -5.5251
upperback 3.6932 3.46457 5.31098
thorax -6.10885 1.7161 8.15526
lowerneck -10.5215 2.27135 -4.766
upperneck -28.9994 1.35586 -0.601534
head -7.35791 0.304347 0.695573
rclavicle 2.3059e-014 2.94201e-014
rhumerus 44.432 19.5031 -97.5609
rradius 49.4314
rwrist -12.4294
rhand -26.5962 -3.00486
rfingers 7.12502
rthumb -0.0300385 -32.9846
lclavicle 2.3059e-014 2.94201e-014
lhumerus 67.4241 -3.7125 119.719
lradius 11.4366
lwrist -28.7659
lhand -4.48847 39.897
lfingers 7.12502
lthumb 21.2848 68.7483
rfemur -78.1108 3.22953 38.4629
rtibia 70.4957
rfoot -13.8772 -23.2801
rtoes 14.2596
lfemur -91.5449 3.16656 -16.0443
ltibia 51.1324
lfoot 9.23197 -3.16255
ltoes 6.86753
1093
root 16.4963 13.9572 -3.14297 -166.563 -83.2273 -160.314
lowerback 16.3265 3.21677 -5.64017
upperback 3.80165 3.36106 5.3141
thorax -5.72654 1.65104 8.25913
lowerneck -10.3025 2.33682 -4.71211
upperneck -29.5493 1.36118 -0.70142
head -7.58415 0.295587 0.656296
rclavicle -3.57812e-014 -1.00983e-013
rhumerus 44.5637 19.5701 -97.4406
rradius 49.2989
rwrist -12.0195
rhand -26.8509 -2.75496
rfingers 7.12502
rthumb -0.276073 -32.7345
lclavicle -3.57812e-014 -1.00983e-013
lhumerus 67.3661 -3.30166 120.712
lradius 11.7533
lwrist -30.4537
lhand -2.82622 40.7794
lfingers 7.12502
lthumb 22.8807 69.442
rfemur -78.4733 3.07976 38.3903
rtibia 70.3033
rfoot -13.7402 -22.9801
rtoes 14.5211
lfemur -91.8072 2.90485 -15.3902
ltibia 52.5815
lfoot 8.25627 -2.96002
ltoes 5.78584
1094
root 16.5305 13.9697 -3.1399 -166.797 -83.381 -159.984
lowerback 16.4881 3.09604 -5.45503
upperback 3.57905 3.24033 5.30441
thorax -6.02132 1.61083 8.16391
lowerneck -10.429 2.38502 -4.72434
upperneck -29.4147 1.45513 -0.639636
head -7.51927 0.338292 0.675903
rclavicle -1.59028e-014 -2.54444e-014
rhumerus 44.2007 19.5975 -97.6466
rradius 48.9674
rwrist -11.6633
rhand -26.9349 -2.39281
rfingers 7.12502
rthumb -0.357182 -32.3723
lclavicle -1.59028e-014 -2.54444e-014
lhumerus 67.1303 -1.52884 124.635
lradius 11.3313
lwrist -35.8475
lhand -5.5984 38.9558
lfingers 7.12502
lthumb 20.2184 67.9236
rfemur -78.6476 2.87836 38.5679
rtibia 70.0956
rfoot -13.6694 -22.7334
rtoes 14.7569
lfemur -91.9691 2.66157 -14.6462
ltibia 53.9855
lfoot 7.37917 -2.5971
ltoes 2.92758
1095
root 16.5604 13.9839 -3.13746 -167.104 -83.5606 -159.665
lowerback 16.756 3.01204 -5.30031
upperback 3.45168 3.15365 5.33282
thorax -6.28212 1.58012 8.12121
lowerneck -10.9467 2.45398 -4.66399
upperneck -29.1763 1.55146 -0.713037
head -7.3559 0.374685 0.639982
rclavicle -1.90833e-014 -8.34896e-014
rhumerus 44.0003 19.6223 -97.7134
rradius 48.664
rwrist -11.3628
rhand -26.6254 -2.75945
rfingers 7.12502
rthumb -0.0583175 -32.7392
lclavicle -1.90833e-014 -8.34896e-014
lhumerus 66.8872 -1.68764 123.845
lradius 11.2085
lwrist -34.3571
lhand -3.00132 40.5257
lfingers 7.12502
lthumb 22.7127 69.2089
rfemur -78.7089 2.64363 38.7366
rtibia 69.9172
rfoot -13.7145 -22.5571
rtoes 15.5618
lfemur -91.9594 2.39408 -13.9338
ltibia 55.1738
lfoot 7.84457 -2.09203
ltoes 4.46874
1096
root 16.5866 13.991 -3.13084 -165.356 -83.6875 -161.275
lowerback 16.8496 2.94949 -5.35512
upperback 3.35553 3.06496 5.32037
thorax -6.42272 1.54827 8.15972
lowerneck -11.3889 2.49389 -4.70998
upperneck -29.1146 1.60515 -0.724852
head -7.26858 0.393021 0.645579
rclavicle 5.32743e-014 6.44062e-014
rhumerus 43.8696 19.6828 -97.6649
rradius 48.5787
rwrist -11.2794
rhand -26.3348 -3.61889
rfingers 7.12502
rthumb 0.222357 -33.5985
lclavicle 5.32743e-014 6.44062e-014
lhumerus 66.7082 -1.56565 123.758
lradius 11.1097
lwrist -34.0757
lhand -3.93634 40.3529
lfingers 7.12502
lthumb 21.8151 69.1434
rfemur -78.9912 2.46091 38.6245
rtibia 69.7368
rfoot -13.705 -22.3549
rtoes 16.4715
lfemur -92.1292 2.1227 -13.5262
ltibia 56.4821
lfoot 7.56072 -1.84117
ltoes 1.72295
1097
root 16.6061 13.9829 -3.12363 -163.53 -83.7174 -162.874
lowerback 16.7191 2.91015 -5.53072
upperback 3.29236 2.9969 5.3645
thorax -6.41863 1.5239 8.33067
lowerneck -11.5374 2.52995 -4.7145
upperneck -29.2462 1.60619 -0.845108
head -7.29189 0.390386 0.608642
rclavicle -1.59028e-015 -3.81667e-014
rhumerus 43.8326 19.859 -97.4779
rradius 48.4385
rwrist -11.433
rhand -26.1884 -3.91762
rfingers 7.12502
rthumb 0.363786 -33.8971
lclavicle -1.59028e-015 -3.81667e-014
lhumerus 66.5716 -1.24284 123.949
lradius 11.0658
lwrist -34.2543
lhand -4.50576 40.185
lfingers 7.12502
lthumb 21.2682 69.038
rfemur -79.3973 2.40212 38.5087
rtibia 69.6289
rfoot -13.4708 -22.1791
rtoes 16.5342
lfemur -92.4784 1.95348 -13.0818
ltibia 57.4131
lfoot 7.50947 -1.96669
ltoes -4.44972
